<?xml version="1.0" encoding="iso-8859-1"?>
<!-- Generator: Adobe Illustrator 18.0.0, SVG Export Plug-In . SVG Version: 6.00 Build 0)  -->
<!DOCTYPE svg PUBLIC "-//W3C//DTD SVG 1.1//EN" "http://www.w3.org/Graphics/SVG/1.1/DTD/svg11.dtd">
<svg version="1.1" id="Capa_1" xmlns="http://www.w3.org/2000/svg" xmlns:xlink="http://www.w3.org/1999/xlink" x="0px" y="0px"
	 viewBox="0 0 53 53" style="enable-background:new 0 0 53 53;" xml:space="preserve">
<path d="M51.646,27.854C51.646,41.719,40.366,53,26.5,53S1.354,41.719,1.354,27.854S12.634,2.707,26.5,2.707
	c7.952,0,15.338,3.715,20.084,10.015V1c0-0.552,0.447-1,1-1s1,0.448,1,1v13.862c0,0.916-0.745,1.661-1.661,1.661H33.062
	c-0.553,0-1-0.448-1-1s0.447-1,1-1h12.35C41.067,8.366,34.064,4.707,26.5,4.707c-12.763,0-23.146,10.383-23.146,23.146
	S13.737,51,26.5,51s23.146-10.383,23.146-23.146c0-1.324-0.112-2.653-0.335-3.951c-0.094-0.544,0.272-1.061,0.816-1.155
	c0.557-0.092,1.062,0.273,1.154,0.817C51.524,24.974,51.646,26.417,51.646,27.854z"/>
<g>
</g>
<g>
</g>
<g>
</g>
<g>
</g>
<g>
</g>
<g>
</g>
<g>
</g>
<g>
</g>
<g>
</g>
<g>
</g>
<g>
</g>
<g>
</g>
<g>
</g>
<g>
</g>
<g>
</g>
</svg>
