<?xml version="1.0" encoding="iso-8859-1"?>
<!-- Generator: Adobe Illustrator 18.0.0, SVG Export Plug-In . SVG Version: 6.00 Build 0)  -->
<!DOCTYPE svg PUBLIC "-//W3C//DTD SVG 1.1//EN" "http://www.w3.org/Graphics/SVG/1.1/DTD/svg11.dtd">
<svg version="1.1" id="Capa_1" xmlns="http://www.w3.org/2000/svg" xmlns:xlink="http://www.w3.org/1999/xlink" x="0px" y="0px"
	 viewBox="0 0 297 297" style="enable-background:new 0 0 297 297;" xml:space="preserve">
<path d="M253.505,43.495C225.457,15.447,188.165,0,148.5,0S71.543,15.447,43.495,43.495c-57.898,57.9-57.898,152.109,0,210.01
	C71.543,281.553,108.835,297,148.5,297s76.957-15.447,105.005-43.495C311.403,195.605,311.403,101.396,253.505,43.495z
	 M264.476,204.371l-34.666-34.664c1.772-6.844,2.7-13.953,2.7-21.207c0-7.449-0.983-14.744-2.851-21.755l34.59-34.59
	C281.394,127.454,281.468,169.018,264.476,204.371z M148.5,212.742c-17.16,0-33.292-6.682-45.427-18.816
	C90.939,181.792,84.258,165.66,84.258,148.5s6.682-33.293,18.815-45.426c12.134-12.135,28.267-18.816,45.427-18.816
	s33.292,6.682,45.427,18.816c12.134,12.134,18.815,28.266,18.815,45.426s-6.682,33.293-18.815,45.426
	C181.793,206.061,165.66,212.742,148.5,212.742z M253.889,74.561l-32.371,32.369c-3.681-6.441-8.225-12.445-13.613-17.834
	c-5.637-5.637-11.944-10.354-18.727-14.119l32.452-32.453c6.337,4.393,12.329,9.381,17.897,14.949
	C244.889,62.834,249.673,68.557,253.889,74.561z M203.947,32.252L169.16,67.039c-6.674-1.68-13.6-2.549-20.66-2.549
	c-7.255,0-14.364,0.927-21.207,2.7l-34.71-34.71c17.221-8.316,36.231-12.714,55.917-12.714
	C168.009,19.767,186.852,24.081,203.947,32.252z M57.473,57.473c5.447-5.447,11.299-10.341,17.483-14.664l32.421,32.42
	c-6.613,3.725-12.768,8.355-18.281,13.867c-5.513,5.514-10.142,11.668-13.866,18.281L42.82,74.968
	C47.105,68.814,51.989,62.956,57.473,57.473z M32.524,92.627l34.666,34.666c-1.772,6.842-2.7,13.953-2.7,21.207
	c0,7.061,0.868,13.986,2.548,20.66l-34.739,34.739C15.609,168.806,15.685,127.668,32.524,92.627z M42.538,221.616l32.438-32.438
	c3.765,6.781,8.482,13.089,14.119,18.726c5.389,5.389,11.393,9.933,17.835,13.613l-32.389,32.39
	c-6.032-4.253-11.743-9.054-17.069-14.38C51.867,233.922,46.892,227.92,42.538,221.616z M92.114,264.29l34.632-34.632
	c7.011,1.867,14.305,2.852,21.754,2.852c7.255,0,14.365-0.927,21.207-2.7l34.71,34.71c-17.221,8.316-36.231,12.714-55.917,12.714
	C128.634,277.233,109.458,272.755,92.114,264.29z M239.527,239.527c-5.447,5.446-11.299,10.341-17.483,14.664l-32.42-32.421
	c6.612-3.724,12.767-8.354,18.28-13.866c5.513-5.514,10.143-11.668,13.866-18.281l32.409,32.409
	C249.895,228.186,245.011,234.044,239.527,239.527z"/>
<g>
</g>
<g>
</g>
<g>
</g>
<g>
</g>
<g>
</g>
<g>
</g>
<g>
</g>
<g>
</g>
<g>
</g>
<g>
</g>
<g>
</g>
<g>
</g>
<g>
</g>
<g>
</g>
<g>
</g>
</svg>
